<svg id="Layer_1" data-name="Layer 1" xmlns="http://www.w3.org/2000/svg" xmlns:xlink="http://www.w3.org/1999/xlink" viewBox="0 0 299.4 87.37"><defs><style>.cls-1{fill:url(#linear-gradient);}.cls-2{opacity:0.1;}.cls-3{fill:#fff;}.cls-4{fill:#112e51;}</style><linearGradient id="linear-gradient" x1="244.56" y1="15.41" x2="282.72" y2="88.37" gradientUnits="userSpaceOnUse"><stop offset="0" stop-color="#0083c8"/><stop offset="1" stop-color="#0065a4"/></linearGradient></defs><title>apps-logo-alt</title><rect class="cls-1" x="227.27" y="15.23" width="72.13" height="72.13" rx="7" ry="7"/><g class="cls-2"><path d="M234.31,58.81a2,2,0,1,1,4,0A2,2,0,1,1,234.31,58.81Z"/><path d="M242.1,63.67a4.77,4.77,0,0,1,2.41-3.74V59.79A3,3,0,0,1,243,57.11a3.87,3.87,0,0,1,1.8-3.06V53.91a5.85,5.85,0,0,1-2.14-4.45c0-3.6,2.86-5.88,6.22-5.88a6.6,6.6,0,0,1,2.35.41H257v2.14h-3.4a4.79,4.79,0,0,1,1.36,3.4c0,3.54-2.69,5.75-6.05,5.75a5.77,5.77,0,0,1-2.48-.58,2.5,2.5,0,0,0-1.05,2c0,1.05.68,1.8,2.92,1.8h3.2c3.84,0,5.78,1.19,5.78,3.94,0,3.06-3.23,5.71-8.36,5.71C244.88,68.12,242.1,66.53,242.1,63.67Zm12.48-.85c0-1.53-1.19-2-3.33-2h-2.86a8,8,0,0,1-2.14-.27,3.48,3.48,0,0,0-1.7,2.79c0,1.77,1.8,2.89,4.79,2.89C252.5,66.19,254.58,64.55,254.58,62.82Zm-2.14-13.36a3.52,3.52,0,1,0-7,0c0,2.41,1.6,3.94,3.5,3.94S252.43,51.87,252.43,49.46Z"/><path d="M258.79,52.28c0-5.54,3.6-8.7,7.65-8.7s7.65,3.16,7.65,8.7-3.6,8.64-7.65,8.64S258.79,57.75,258.79,52.28Zm12.41,0c0-3.81-1.9-6.39-4.76-6.39s-4.76,2.58-4.76,6.39,1.94,6.32,4.76,6.32S271.2,56.05,271.2,52.28Z"/><path d="M275.93,44h2.89l3.13,9.39c0.48,1.63,1,3.3,1.53,4.86h0.14c0.48-1.56,1-3.23,1.5-4.86L288.24,44H291l-5.85,16.53h-3.26Z"/></g><path class="cls-3" d="M234.31,58a2,2,0,1,1,4,0A2,2,0,1,1,234.31,58Z"/><path class="cls-3" d="M242.1,62.89a4.77,4.77,0,0,1,2.41-3.74V59A3,3,0,0,1,243,56.33a3.87,3.87,0,0,1,1.8-3.06V53.13a5.85,5.85,0,0,1-2.14-4.45c0-3.6,2.86-5.88,6.22-5.88a6.6,6.6,0,0,1,2.35.41H257v2.14h-3.4a4.79,4.79,0,0,1,1.36,3.4c0,3.54-2.69,5.75-6.05,5.75a5.77,5.77,0,0,1-2.48-.58,2.5,2.5,0,0,0-1.05,2c0,1.05.68,1.8,2.92,1.8h3.2c3.84,0,5.78,1.19,5.78,3.94,0,3.06-3.23,5.71-8.36,5.71C244.88,67.34,242.1,65.74,242.1,62.89ZM254.58,62c0-1.53-1.19-2-3.33-2h-2.86a8,8,0,0,1-2.14-.27,3.48,3.48,0,0,0-1.7,2.79c0,1.77,1.8,2.89,4.79,2.89C252.5,65.4,254.58,63.77,254.58,62Zm-2.14-13.36a3.52,3.52,0,1,0-7,0c0,2.41,1.6,3.94,3.5,3.94S252.43,51.09,252.43,48.68Z"/><path class="cls-3" d="M258.79,51.5c0-5.54,3.6-8.7,7.65-8.7s7.65,3.16,7.65,8.7-3.6,8.64-7.65,8.64S258.79,57,258.79,51.5Zm12.41,0c0-3.81-1.9-6.39-4.76-6.39s-4.76,2.58-4.76,6.39,1.94,6.32,4.76,6.32S271.2,55.27,271.2,51.5Z"/><path class="cls-3" d="M275.93,43.2h2.89l3.13,9.39c0.48,1.63,1,3.3,1.53,4.86h0.14c0.48-1.56,1-3.23,1.5-4.86l3.13-9.39H291l-5.85,16.53h-3.26Z"/><path class="cls-4" d="M21.32,0h18.5L61.14,68.14H44.83l-4.18-16.2H19.86l-4.18,16.2H0ZM23,39.92H37.52L36,33.65c-1.88-6.79-3.76-14.84-5.54-21.95H30c-1.67,7.21-3.45,15.15-5.33,21.95Z"/><path class="cls-4" d="M64.69,16.3H77.23l1,5.12h0.42C82.77,17.77,88,15,93.43,15,106,15,113.7,25.4,113.7,41.38c0,17.77-10.66,28-21.84,28-4.49,0-8.67-2-12.33-5.43L80,72.21V87.37H64.69V16.3ZM97.92,41.59c0-9.3-2.82-14-9-14-3.14,0-5.85,1.46-8.88,4.7V53.51a11.92,11.92,0,0,0,8.26,3.34C93.63,56.85,97.92,52.25,97.92,41.59Z"/><path class="cls-4" d="M122,16.3h12.54l1,5.12H136C140,17.77,145.26,15,150.69,15,163.23,15,171,25.4,171,41.38c0,17.77-10.66,28-21.84,28-4.49,0-8.67-2-12.33-5.43l0.52,8.26V87.37H122V16.3Zm33.23,25.29c0-9.3-2.82-14-9-14-3.14,0-5.85,1.46-8.88,4.7V53.51a11.92,11.92,0,0,0,8.26,3.34C150.9,56.85,155.19,52.25,155.19,41.59Z"/><path class="cls-4" d="M174.1,62.18l6.9-9.61c4.7,3.55,9,5.43,13.38,5.43,4.6,0,6.58-1.67,6.58-4.39,0-3.45-5.23-5-10.56-7.11-6.27-2.4-13.69-6.69-13.69-15.26,0-9.61,7.84-16.2,19.86-16.2,7.94,0,13.79,3.24,18.29,6.58l-6.9,9.2c-3.76-2.72-7.32-4.39-11-4.39-4,0-5.85,1.46-5.85,4.08,0,3.34,4.81,4.6,10.14,6.58,6.58,2.4,14,6.06,14,15.57S207.85,69.39,194,69.39A33.46,33.46,0,0,1,174.1,62.18Z"/></svg>