<svg id="Layer_1" data-name="Layer 1" xmlns="http://www.w3.org/2000/svg" xmlns:xlink="http://www.w3.org/1999/xlink" viewBox="0 0 278.11 87.37"><defs><style>.cls-1{fill:url(#linear-gradient);}.cls-2{opacity:0.1;}.cls-3{fill:#fff;}.cls-4{fill:#112e51;}</style><linearGradient id="linear-gradient" x1="237.04" y1="15.84" x2="265.29" y2="69.84" gradientUnits="userSpaceOnUse"><stop offset="0" stop-color="#0083c8"/><stop offset="1" stop-color="#0065a4"/></linearGradient></defs><title>Logo</title><rect class="cls-1" x="223.77" y="15.23" width="54.34" height="54.34" rx="7" ry="7"/><g class="cls-2"><path d="M229.08,48.06a1.53,1.53,0,1,1,3,0A1.53,1.53,0,1,1,229.08,48.06Z"/><path d="M234.94,51.72a3.59,3.59,0,0,1,1.82-2.82V48.8a2.3,2.3,0,0,1-1.1-2A2.92,2.92,0,0,1,237,44.47v-0.1a4.39,4.39,0,0,1,3.07-7.79,5,5,0,0,1,1.77.31h4.33V38.5h-2.56a3.61,3.61,0,0,1,1,2.56,4.27,4.27,0,0,1-4.56,4.33,4.35,4.35,0,0,1-1.87-.44,1.89,1.89,0,0,0-.79,1.49c0,0.79.51,1.36,2.2,1.36H242c2.89,0,4.35.9,4.35,3,0,2.31-2.43,4.3-6.3,4.3C237,55.08,234.94,53.87,234.94,51.72Zm9.4-.64c0-1.15-.9-1.54-2.51-1.54h-2.15a6.06,6.06,0,0,1-1.61-.2,2.62,2.62,0,0,0-1.28,2.1c0,1.33,1.36,2.18,3.61,2.18S244.34,52.39,244.34,51.08ZM242.73,41a2.65,2.65,0,1,0-5.28,0A2.66,2.66,0,1,0,242.73,41Z"/><path d="M247.52,43.14c0-4.18,2.72-6.56,5.76-6.56S259,39,259,43.14s-2.72,6.51-5.76,6.51S247.52,47.26,247.52,43.14Zm9.35,0c0-2.87-1.43-4.82-3.59-4.82s-3.59,1.95-3.59,4.82,1.46,4.76,3.59,4.76S256.87,46,256.87,43.14Z"/><path d="M260.43,36.89h2.18L265,44c0.36,1.23.77,2.48,1.15,3.66h0.1c0.36-1.18.77-2.43,1.13-3.66l2.36-7.07h2.07l-4.41,12.45h-2.46Z"/></g><path class="cls-3" d="M229.08,47.47a1.53,1.53,0,1,1,3,0A1.53,1.53,0,1,1,229.08,47.47Z"/><path class="cls-3" d="M234.94,51.13a3.59,3.59,0,0,1,1.82-2.82v-0.1a2.3,2.3,0,0,1-1.1-2A2.92,2.92,0,0,1,237,43.88v-0.1A4.39,4.39,0,0,1,240.09,36a5,5,0,0,1,1.77.31h4.33v1.61h-2.56a3.61,3.61,0,0,1,1,2.56,4.27,4.27,0,0,1-4.56,4.33,4.35,4.35,0,0,1-1.87-.44,1.89,1.89,0,0,0-.79,1.49c0,0.79.51,1.36,2.2,1.36H242c2.89,0,4.35.9,4.35,3,0,2.31-2.43,4.3-6.3,4.3C237,54.49,234.94,53.28,234.94,51.13Zm9.4-.64c0-1.15-.9-1.54-2.51-1.54h-2.15a6.06,6.06,0,0,1-1.61-.2,2.62,2.62,0,0,0-1.28,2.1c0,1.33,1.36,2.18,3.61,2.18S244.34,51.8,244.34,50.49Zm-1.61-10.07a2.65,2.65,0,1,0-5.28,0A2.66,2.66,0,1,0,242.73,40.43Z"/><path class="cls-3" d="M247.52,42.55c0-4.18,2.72-6.56,5.76-6.56S259,38.38,259,42.55s-2.72,6.51-5.76,6.51S247.52,46.68,247.52,42.55Zm9.35,0c0-2.87-1.43-4.82-3.59-4.82s-3.59,1.95-3.59,4.82,1.46,4.76,3.59,4.76S256.87,45.39,256.87,42.55Z"/><path class="cls-3" d="M260.43,36.3h2.18L265,43.37c0.36,1.23.77,2.48,1.15,3.66h0.1c0.36-1.18.77-2.43,1.13-3.66l2.36-7.07h2.07l-4.41,12.45h-2.46Z"/><path class="cls-4" d="M21.32,0h18.5L61.14,68.14H44.83l-4.18-16.2H19.86l-4.18,16.2H0ZM23,39.92H37.52L36,33.65c-1.88-6.79-3.76-14.84-5.54-21.95H30c-1.67,7.21-3.45,15.15-5.33,21.95Z"/><path class="cls-4" d="M64.69,16.3H77.23l1,5.12h0.42C82.77,17.77,88,15,93.43,15,106,15,113.7,25.4,113.7,41.38c0,17.77-10.66,28-21.84,28-4.49,0-8.67-2-12.33-5.43L80,72.21V87.37H64.69V16.3ZM97.92,41.59c0-9.3-2.82-14-9-14-3.14,0-5.85,1.46-8.88,4.7V53.51a11.92,11.92,0,0,0,8.26,3.34C93.63,56.85,97.92,52.25,97.92,41.59Z"/><path class="cls-4" d="M122,16.3h12.54l1,5.12H136C140,17.77,145.26,15,150.69,15,163.23,15,171,25.4,171,41.38c0,17.77-10.66,28-21.84,28-4.49,0-8.67-2-12.33-5.43l0.52,8.26V87.37H122V16.3Zm33.23,25.29c0-9.3-2.82-14-9-14-3.14,0-5.85,1.46-8.88,4.7V53.51a11.92,11.92,0,0,0,8.26,3.34C150.9,56.85,155.19,52.25,155.19,41.59Z"/><path class="cls-4" d="M174.1,62.18l6.9-9.61c4.7,3.55,9,5.43,13.38,5.43,4.6,0,6.58-1.67,6.58-4.39,0-3.45-5.23-5-10.56-7.11-6.27-2.4-13.69-6.69-13.69-15.26,0-9.61,7.84-16.2,19.86-16.2,7.94,0,13.79,3.24,18.29,6.58l-6.9,9.2c-3.76-2.72-7.32-4.39-11-4.39-4,0-5.85,1.46-5.85,4.08,0,3.34,4.81,4.6,10.14,6.58,6.58,2.4,14,6.06,14,15.57S207.85,69.39,194,69.39A33.46,33.46,0,0,1,174.1,62.18Z"/></svg>